<svg width="40" height="40" viewBox="0 0 40 40" fill="none" xmlns="http://www.w3.org/2000/svg">
<g style="mix-blend-mode:color-burn">
<path d="M30.5464 24.0055C33.105 20.3844 34.1863 16.0656 33.5933 11.843C33.3418 10.0567 32.741 8.33749 31.825 6.78346C30.9091 5.22944 29.6961 3.87103 28.2552 2.78582C26.8143 1.7006 25.1737 0.909824 23.4272 0.458639C21.6806 0.0074541 19.8624 -0.0953028 18.0761 0.156235C10.5761 1.21014 5.33081 8.1703 6.38471 15.6703C6.97612 19.8805 9.20659 23.7297 12.6636 26.5094C14.5839 28.0469 16.7503 29.1265 18.8058 29.6094C18.9612 29.6467 19.0964 29.7422 19.1836 29.8762C19.2708 30.0101 19.3034 30.1724 19.2746 30.3297L18.8941 32.3906C18.8388 32.671 18.8795 32.9619 19.0097 33.2164C19.1154 33.4193 19.2747 33.5893 19.4703 33.7079C19.6659 33.8265 19.8903 33.8892 20.1191 33.889C20.1774 33.8892 20.2356 33.885 20.2933 33.8765L21.6847 33.6812C21.7179 33.6766 21.7517 33.6828 21.781 33.6988C21.8104 33.7149 21.8339 33.7399 21.848 33.7703C23.1542 36.607 25.3996 38.7586 28.266 39.8922C28.4229 39.9542 28.5907 39.9837 28.7593 39.9792C28.928 39.9746 29.0939 39.9359 29.2472 39.8654C29.4005 39.795 29.5379 39.6943 29.6513 39.5693C29.7646 39.4443 29.8514 39.2977 29.9066 39.1383C30.1277 38.4992 29.7785 37.8047 29.1503 37.5539C27.1892 36.7704 25.5546 35.3404 24.5175 33.5008C24.5044 33.4786 24.497 33.4535 24.4959 33.4278C24.4948 33.402 24.5001 33.3764 24.5113 33.3532C24.5225 33.33 24.5393 33.3099 24.5602 33.2948C24.581 33.2796 24.6053 33.2699 24.6308 33.2664L25.2089 33.1883C25.5114 33.1493 25.7904 33.0045 25.9964 32.7797C26.1631 32.5932 26.27 32.3609 26.3033 32.113C26.3366 31.8651 26.2947 31.6129 26.1831 31.389L25.241 29.4961C25.1694 29.3523 25.1559 29.1865 25.2033 29.033C25.2507 28.8795 25.3554 28.7502 25.4957 28.6719C27.3386 27.643 29.1246 26.0156 30.5464 24.0055ZM18.4449 25.3164C18.2876 25.3164 18.1318 25.2867 17.9855 25.2289C14.7621 23.9539 12.0246 21.1117 10.841 17.8117C10.7833 17.6567 10.7569 17.4918 10.7635 17.3265C10.77 17.1612 10.8093 16.9989 10.879 16.8489C10.9487 16.6989 11.0475 16.5642 11.1697 16.4527C11.2918 16.3412 11.4349 16.255 11.5906 16.1992C11.7463 16.1433 11.9115 16.119 12.0767 16.1274C12.2419 16.1359 12.4038 16.1771 12.5529 16.2487C12.7021 16.3202 12.8355 16.4206 12.9456 16.544C13.0557 16.6675 13.1401 16.8116 13.1941 16.968C14.3269 20.1273 16.8871 22.1062 18.905 22.9055C19.1757 23.0124 19.4005 23.2105 19.5408 23.4654C19.681 23.7204 19.728 24.0163 19.6734 24.3022C19.6189 24.588 19.4664 24.8459 19.2421 25.0313C19.0178 25.2167 18.7359 25.3181 18.4449 25.318V25.3164Z" fill="#B5CBD7"/>
</g>
</svg>
