<svg width="40" height="32" viewBox="0 0 40 32" fill="none" xmlns="http://www.w3.org/2000/svg">
<g style="mix-blend-mode:color-burn" clip-path="url(#clip0_143_81)">
<path d="M9.72464 1.08124C10.1871 0.187492 11.2434 -0.225008 12.1871 0.118742L19.9996 2.96874L27.8121 0.118742C28.7559 -0.225008 29.8121 0.187492 30.2746 1.08124L35.1996 10.6375C36.9996 14.125 35.8434 18.2812 32.7934 20.425L34.7559 25.8125L37.3184 24.875C38.3559 24.5 39.5059 25.0312 39.8809 26.0687C40.2559 27.1062 39.7246 28.2562 38.6871 28.6312L34.2434 30.25L29.7996 31.875C28.7621 32.2562 27.6121 31.7187 27.2371 30.6812C26.8621 29.6437 27.3934 28.4937 28.4309 28.1187L30.9934 27.1812L29.0371 21.7937C25.3246 22.1187 21.7746 19.6687 20.9121 15.8437L19.9996 11.8L19.0871 15.8437C18.2246 19.675 14.6746 22.1187 10.9621 21.7937L9.00589 27.1812L11.5684 28.1187C12.6059 28.4937 13.1434 29.6437 12.7621 30.6812C12.3809 31.7187 11.2371 32.2562 10.1996 31.875L5.76214 30.2562L1.31839 28.6375C0.280891 28.2562 -0.256609 27.1125 0.124641 26.075C0.505891 25.0375 1.64964 24.5 2.68714 24.8812L5.24964 25.8187L7.20589 20.4312C4.15589 18.2812 3.00589 14.125 4.80589 10.6375L9.72464 1.08124ZM12.4746 4.48124L10.7746 7.78124L16.3496 9.81249L17.1684 6.19374L12.4746 4.48124ZM27.5309 4.48124L22.8371 6.19374L23.6559 9.81249L29.2309 7.78124L27.5309 4.48124Z" fill="#B5CBD7"/>
</g>
<defs>
<clipPath id="clip0_143_81">
<rect width="40" height="32" fill="white"/>
</clipPath>
</defs>
</svg>
