<svg width="40" height="40" viewBox="0 0 40 40" fill="none" xmlns="http://www.w3.org/2000/svg">
<g style="mix-blend-mode:color-burn" clip-path="url(#clip0_143_75)">
<path d="M39.2682 3.04688L36.9533 0.732038C36.7212 0.499831 36.4455 0.315632 36.1422 0.189959C35.8388 0.0642866 35.5137 -0.000396729 35.1854 -0.000396729C34.857 -0.000396729 34.5319 0.0642866 34.2285 0.189959C33.9252 0.315632 33.6495 0.499831 33.4174 0.732038L29.8018 4.35157C29.4987 4.65382 29.2705 5.02276 29.1354 5.42891L28.1854 8.28126L22.2275 14.2391C21.2775 13.5547 20.2354 13.0094 19.0947 12.7438C16.4814 12.1359 13.8604 12.675 12.0729 14.4625C11.3437 15.1947 10.8013 16.0915 10.4916 17.0774C10.0229 18.5274 8.67832 19.6313 7.19864 19.7695C5.34707 19.9469 3.62598 20.6641 2.30723 21.9914C-1.2584 25.5469 -0.616989 31.9531 3.71739 36.2852C8.05176 40.6172 14.4533 41.25 18.0127 37.6969C19.3408 36.3781 20.0564 34.6578 20.2354 32.7977C20.3729 31.325 21.4768 29.975 22.9252 29.5055C23.9112 29.1952 24.8082 28.6527 25.5408 27.9234C27.3275 26.1359 27.8643 23.5203 27.2596 20.9117C26.9947 19.768 26.4494 18.7242 25.7627 17.7711L31.7189 11.8149L34.5689 10.8649C34.9751 10.7297 35.344 10.5015 35.6463 10.1984L39.2658 6.57969C39.7341 6.11128 39.9974 5.47615 39.9979 4.81377C39.9983 4.1514 39.7359 3.51592 39.2682 3.04688ZM16.2502 27.5C15.5085 27.5 14.7835 27.2801 14.1668 26.868C13.5501 26.456 13.0695 25.8703 12.7856 25.1851C12.5018 24.4998 12.4276 23.7458 12.5723 23.0184C12.7169 22.291 13.0741 21.6228 13.5985 21.0984C14.123 20.5739 14.7912 20.2168 15.5186 20.0721C16.246 19.9274 17 20.0016 17.6853 20.2855C18.3705 20.5693 18.9562 21.0499 19.3682 21.6666C19.7803 22.2833 20.0002 23.0083 20.0002 23.75C20.0002 24.7446 19.6051 25.6984 18.9018 26.4017C18.1986 27.1049 17.2448 27.5 16.2502 27.5Z" fill="#B5CBD7"/>
</g>
<defs>
<clipPath id="clip0_143_75">
<rect width="40" height="40" fill="white"/>
</clipPath>
</defs>
</svg>
