<svg width="39" height="40" viewBox="0 0 39 40" fill="none" xmlns="http://www.w3.org/2000/svg">
<g style="mix-blend-mode:color-burn" clip-path="url(#clip0_143_79)">
<path d="M33.8721 25.713C33.8373 27.0542 31.2459 27.9857 32.3009 29.3187C34.6294 29.6456 33.5703 31.1889 34.846 31.7141C32.5909 35.3862 28.9517 35.8448 25.4912 33.5454C24.4845 32.9451 23.3509 32.6907 22.4216 32.941C21.8922 33.7879 22.6798 33.8877 23.1819 34.0104C25.6155 34.4948 28.0688 38.2563 36.3044 34.6734C37.4017 34.2116 37.2353 32.8525 36.7602 31.784C37.6729 31.3951 37.7277 30.3809 37.8622 29.0773C38.7575 26.1385 35.8168 26.3925 33.8721 25.713ZM20.9246 19.3312C19.9204 19.3537 18.442 20.3049 17.4652 20.7784C18.8436 21.5891 19.3911 22.5539 20.9246 22.2526C22.4587 21.9513 22.4307 20.9635 21.8272 19.8159C21.6379 19.456 21.3176 19.3224 20.9246 19.3312ZM27.4049 0.00109355C25.5309 0.087031 23.919 5.10719 22.0077 8.66547C16.5131 10.9507 15.1382 7.98758 13.3441 8.47492C10.2882 2.24633 5.75095 -3.99836 4.52493 3.42359C4.79603 9.03328 2.55696 9.49547 2.75501 17.4996C2.75501 17.4996 -1.23866 25.5377 0.390714 32.6502C1.53876 37.662 5.57595 39.5534 8.28759 40C8.56821 37.95 11.786 33.3273 10.9059 32.2487C8.71001 29.5572 9.39892 22.9638 14.9644 22.2823C15.7247 16.7361 19.498 17.7801 19.112 16.1758C17.9024 11.1498 23.1213 13.4959 23.9972 15.1428C25.5709 17.7543 26.6775 20.321 27.9639 21.5376C29.5999 23.0848 31.8192 23.93 31.9491 23.9788C31.4828 23.6873 27.4817 20.3026 26.3109 17.5839C25.6069 15.9487 25.6777 12.2652 25.6777 12.2652C27.7077 11.9476 28.5268 15.3632 30.7316 18.462C30.8228 18.6852 30.8067 18.8639 30.7316 19.0128C30.4274 18.8524 30.3217 18.4502 29.9567 18.4019C29.6244 18.4019 29.3549 18.8734 29.3549 19.4549C29.3549 20.0364 29.7935 20.244 30.3977 20.5159C31.2399 21.9981 32.1153 22.5428 32.9576 22.9142L30.2398 14.9727C30.139 9.99906 30.6651 5.02523 27.7834 0.0515623C27.6612 0.0125505 27.533 -0.0045357 27.4049 0.00109355ZM27.4309 1.5868C27.5814 1.58422 27.7205 1.68578 27.8435 1.91703C29.3477 4.74477 29.4031 11.3819 29.3928 13.7283C28.6785 12.1027 27.6082 9.36867 24.2338 8.53508C24.2338 8.53508 26.205 1.60812 27.4309 1.5868ZM7.21806 2.21758C7.90376 2.21469 8.68306 2.61648 9.58712 4.265C11.0336 6.90266 12.0716 8.65734 12.5754 9.56555C13.6067 11.4246 12.1238 9.95461 11.6596 14.7245C11.5679 15.6664 11.2123 16.1194 10.5151 16.5974C9.0061 15.0891 7.94181 12.4716 7.20704 9.35969C5.76642 11.4993 8.13931 14.8077 8.1815 17.637C6.58087 18.0029 5.54306 17.8749 4.95087 17.6775C4.20829 17.3062 3.9636 12.7773 5.34103 9.26148C6.48837 6.33305 5.94298 2.60937 6.45306 2.44711C6.804 2.33539 6.80657 2.2193 7.21806 2.21758Z" fill="#B5CBD7"/>
</g>
<defs>
<clipPath id="clip0_143_79">
<rect width="38.0469" height="40" fill="white"/>
</clipPath>
</defs>
</svg>
