<svg width="40" height="40" viewBox="0 0 40 40" fill="none" xmlns="http://www.w3.org/2000/svg">
<g style="mix-blend-mode:color-burn">
<path d="M31.7574 3.40313C31.5386 3.40313 31.3433 3.44454 31.1949 3.52501C31.4058 5.05313 31.5543 5.40391 32.7652 6.21172C31.1324 9.21876 32.1871 10.1172 23.8355 9.07813C20.148 8.61719 17.359 9.28126 14.6715 11.3047C10.898 14.1484 9.64802 15.7422 7.67145 20.9531C6.2613 24.6719 7.67927 32.3125 2.35348 29.6094C1.85036 29.4375 1.31598 29.4063 1.73942 30.125C2.48395 31.2734 3.87692 32.0859 5.64099 31.375C8.40583 30.25 8.17927 26.4688 10.2105 21.9063C10.9136 20.3047 12.5152 16.4922 14.023 18.2578C14.5386 18.8672 15.1011 20.1172 14.8121 20.7109C13.5699 23.3125 12.8277 25.1328 10.8824 26.625C11.1715 29.9219 11.0621 33.4844 9.28864 36.0547L9.97614 36.5938C11.0074 35.8672 12.1793 35.1094 12.5152 34.0547C12.5933 32.5313 12.8199 32.3359 12.6949 29.1172C14.0543 27.7578 15.4527 26.6563 16.6636 24.3594C18.9136 23.7109 20.2808 21.8828 22.1793 20.1172C22.523 19.7969 22.8121 19.4688 23.0933 19.1563C23.7183 17.9219 23.3433 16.4453 22.8746 15.0313C24.1246 15.6953 24.6636 16.8125 24.7808 17.8516C25.7808 17.8047 26.6168 17.7031 27.484 17.4375C27.2105 15.9766 27.7105 15.0156 28.9136 14.0078C28.2027 15.8828 27.9605 16.3828 28.5386 17.0781C28.5465 17.0703 28.5621 17.0625 28.5699 17.0625C28.9449 17.8203 28.9371 18.5547 28.9527 19.3594C28.5465 19.9141 27.9449 19.7656 27.3902 19.7734L26.1871 21.2969C27.2261 21.1641 30.2183 20.5625 30.234 20.0938C30.2965 18.7969 30.5777 17.4063 30.1558 16.2031C30.9605 15.6094 31.6949 14.75 32.3043 13.9063C33.1636 12.7031 33.4293 11.6953 34.3902 10.0078C34.5933 9.64844 36.9293 10.5938 37.359 10.4609C38.0386 10.25 38.4761 9.96094 38.4058 9.22657C38.3902 9.02344 37.3355 8.35938 36.773 7.93751C36.773 7.93751 36.8668 7.18751 36.6558 6.90079C36.3277 6.45157 35.109 6.16485 35.109 6.16485C34.8824 4.47735 32.9449 3.39298 31.7574 3.40313ZM35.8511 7.12969C36.0777 7.12969 36.2574 7.30626 36.2574 7.52032C36.2574 7.73751 36.0777 7.90626 35.8511 7.90626C35.6246 7.90626 35.4449 7.73751 35.4449 7.52032C35.4449 7.30626 35.6246 7.13126 35.8511 7.12969Z" fill="#B5CBD7"/>
</g>
</svg>
