<svg width="40" height="40" viewBox="0 0 40 40" fill="none" xmlns="http://www.w3.org/2000/svg">
<g style="mix-blend-mode:color-burn">
<path d="M19.8291 1.13047C9.47469 1.13047 1.06445 9.54063 1.06445 19.895C1.06445 30.2495 9.47461 38.6572 19.8291 38.6572C30.1835 38.6573 38.5938 30.2494 38.5938 19.895C38.5938 9.54063 30.1836 1.13047 19.8291 1.13047H19.8291ZM19.8291 2.59031C29.3945 2.59031 37.1338 10.3297 37.1338 19.895C37.1338 21.2981 36.9672 22.6616 36.6528 23.9673L33.1445 23.2887L31.5406 17.6954L31.4331 17.317L31.0547 17.1998L26.5185 15.7984L21.2915 5.74953L20.9204 5.03422L20.2442 5.4736L13.1275 10.1025L12.8981 10.2515L12.8223 10.5151L9.07734 23.5914L3.59141 25.8911C2.90234 24.0231 2.52453 22.0041 2.52453 19.895C2.52453 10.3297 10.2638 2.59031 19.8291 2.59031ZM19.8926 7.44383L15.7887 15.6153L17.0557 26.1183L24.0967 21.2794V26.1989L22.2559 26.6872L23.8844 36.7211C22.5839 37.0327 21.2258 37.1973 19.8291 37.1973C12.8905 37.1973 6.91266 33.1256 4.15281 27.2387L9.96578 24.7998L10.2881 24.6655L10.3858 24.3286L14.1504 11.1817L19.8926 7.44383Z" fill="#B5CBD7"/>
</g>
</svg>
