<svg width="40" height="40" viewBox="0 0 40 40" fill="none" xmlns="http://www.w3.org/2000/svg">
<g style="mix-blend-mode:color-burn">
<path d="M11.4167 28.5833L6.08333 25.6667L7.83333 23.9167L12 24.5L18.5 18L5.5 10.9167L7.83333 8.58333L23.75 12.6667L30.2917 6.20833C30.7639 5.73611 31.3544 5.5 32.0633 5.5C32.7722 5.5 33.3622 5.73611 33.8333 6.20833C34.3056 6.68056 34.5417 7.27111 34.5417 7.98C34.5417 8.68889 34.3056 9.27889 33.8333 9.75L27.3333 16.25L31.4167 32.1667L29.0833 34.5L22 21.5L15.5 28L16.0833 32.1667L14.3333 33.9167L11.4167 28.5833Z" fill="#B5CBD7"/>
</g>
</svg>
