<svg width="40" height="40" viewBox="0 0 40 40" fill="none" xmlns="http://www.w3.org/2000/svg">
<g style="mix-blend-mode:color-burn">
<path d="M20.0003 16.6667L13.3337 7.33333L16.0003 3.33333H24.0003L26.667 7.33333L20.0003 16.6667ZM25.8337 11.3333L23.8337 14.1667C27.5003 15.6667 30.0003 19.1667 30.0003 23.3333C30.0003 25.9855 28.9468 28.529 27.0714 30.4044C25.196 32.2798 22.6525 33.3333 20.0003 33.3333C17.3482 33.3333 14.8046 32.2798 12.9293 30.4044C11.0539 28.529 10.0003 25.9855 10.0003 23.3333C10.0003 19.1667 12.5003 15.6667 16.167 14.1667L14.167 11.3333C9.66699 13.5 6.66699 18 6.66699 23.3333C6.66699 26.8695 8.07175 30.2609 10.5722 32.7614C13.0727 35.2619 16.4641 36.6667 20.0003 36.6667C23.5365 36.6667 26.9279 35.2619 29.4284 32.7614C31.9289 30.2609 33.3337 26.8695 33.3337 23.3333C33.3337 18 30.3337 13.5 25.8337 11.3333Z" fill="#B5CBD7"/>
</g>
</svg>
