<svg width="95" height="60" viewBox="0 0 95 60" fill="none" xmlns="http://www.w3.org/2000/svg">
<g clip-path="url(#clip0_146_139)">
<path d="M19.1728 20.7815L21.2829 20.9033C20.873 27.3129 18.2013 31.7737 12.964 32.7024C4.52356 34.2248 -0.577107 28.0589 0.0452968 19.2134C0.500714 12.4385 4.08333 6.31819 11.4459 5.00888C14.9982 4.36945 16.6225 5.48084 18.2923 5.17635C19.0362 5.03933 19.7345 4.61304 20.114 3.50165L21.6472 3.65389L20.9489 14.2502L19.2943 14.9353C18.1405 10.3527 15.6965 6.37909 12.0683 7.03375C8.22762 7.71885 6.84619 12.1796 6.34523 19.1068C5.81391 26.9323 7.99991 31.4539 12.8577 30.5861C17.2297 29.8097 18.7781 25.9427 19.1728 20.7968V20.7815Z" fill="#0E181E"/>
<path d="M24.9108 24.9683L25.4573 16.7927C26.0949 7.17078 25.9431 4.53693 23.666 4.93277L23.7875 3.24284L31.9242 1.79651C31.4536 4.97844 30.9375 11.4793 30.6339 15.7879C29.9052 26.2319 30.391 27.2367 32.5163 26.8561L32.41 28.1959C31.5447 28.9267 30.3455 29.6118 28.8881 29.8706C26.3833 30.3121 24.6072 29.2464 24.8956 24.9835L24.9108 24.9683Z" fill="#0E181E"/>
<path d="M54.0422 23.0195L53.9663 24.3441C53.101 25.0749 52.0232 25.7295 50.6721 25.9731C48.8808 26.2928 47.4386 25.5773 46.968 23.5829C46.042 25.5316 44.5847 27.0693 41.8218 27.5565C37.0855 28.409 34.0342 24.0396 34.5807 17.5692C34.9754 12.5907 37.5865 8.41919 42.7023 7.50572C44.9794 7.09466 46.9984 7.62752 48.3343 9.66761C49.2755 8.26695 50.2319 7.12511 51.2034 6.25731L52.9947 5.93759C52.4027 9.51536 52.175 12.6212 51.9017 16.1076C51.4311 22.3344 51.9928 23.4002 54.0574 23.0348L54.0422 23.0195ZM43.8105 9.65238C41.9433 9.98733 40.8199 12.5451 40.4859 17.1581C40.1216 22.4867 41.1691 25.151 43.4917 24.7399C45.283 24.4202 46.3912 21.9386 46.7555 17.0515C47.1198 11.9665 46.1028 9.24132 43.8257 9.65238H43.8105Z" fill="#0E181E"/>
<path d="M72.6686 7.01852C72.532 9.28698 70.938 10.9617 69.253 11.2662C67.7957 11.525 66.7178 10.6724 66.6116 9.6067C67.3251 9.05862 67.7805 8.35829 67.8412 7.61228C67.8716 6.9424 67.5224 6.27252 66.7482 6.40954C65.7007 6.59224 63.8639 8.43441 63.4996 13.9153C63.2263 17.7823 63.1352 20.7511 63.2719 23.2631L57.2604 24.3441C57.655 22.0299 58.0497 18.4065 58.3078 14.646C58.6721 9.31743 58.4596 6.80538 56.2129 7.21644L56.2888 5.49607L64.1371 4.09541L63.9246 7.46004C64.9721 4.87186 66.8697 3.18193 68.5851 2.87744C71.272 2.40548 72.8356 4.24765 72.6686 7.01852Z" fill="#0E181E"/>
<path d="M80.2598 12.1035C80.5786 16.0619 82.2485 17.8889 85.1328 17.3712C87.5161 16.9449 89.0494 15.1332 89.8843 11.8143L91.9033 12.3015C90.7496 16.2142 88.9886 19.1221 84.2827 19.9594C78.0435 21.0708 73.884 17.3712 74.3546 10.2918C74.643 6.22686 77.0871 1.33977 83.5388 0.182705C88.8824 -0.776442 91.4631 1.82696 91.2354 4.87187C90.9318 8.63234 86.9089 10.8551 80.2598 12.0883V12.1035ZM80.1991 10.1091C83.888 9.37834 86.0284 7.79499 86.2258 5.17636C86.3169 3.7757 85.6034 1.91831 83.7058 2.26847C81.1251 2.72521 80.275 6.16596 80.1991 10.1243V10.1091Z" fill="#0E181E"/>
<path d="M38.1328 60L38.2239 58.3253C40.4706 57.9295 41.0019 55.5544 41.6699 45.8412C42.3378 36.1431 42.1253 33.8899 39.8938 34.3009L39.9848 32.6262L50.6264 30.7232L50.5353 32.3979C48.2583 32.8089 47.7117 35.184 47.0438 44.882C46.3759 54.5801 46.5884 56.8333 48.8655 56.4222L48.7744 58.0969L38.1328 60Z" fill="#0E181E"/>
<path d="M72.593 45.7955L72.5171 47.12C71.6518 47.8508 70.574 48.5055 69.2229 48.7491C67.4316 49.0688 65.9894 48.3532 65.5188 46.3588C64.5928 48.3075 63.1355 49.8452 60.3726 50.3324C55.6363 51.185 52.585 46.8155 53.1315 40.3451C53.5262 35.3667 56.1372 31.1951 61.2531 30.2817C63.5302 29.8706 65.5492 30.4035 66.8851 32.4435C67.8263 31.0429 68.7827 29.901 69.7542 29.0332L71.5455 28.7135C70.9535 32.2913 70.7258 35.3971 70.4525 38.8835C69.9819 45.1104 70.5436 46.1761 72.6082 45.8107L72.593 45.7955ZM62.3613 32.4283C60.4941 32.7633 59.3707 35.321 59.0367 39.934C58.6724 45.2626 59.7198 47.9269 62.0425 47.5159C63.8338 47.1961 64.942 44.7145 65.3063 39.8275C65.6706 34.7425 64.6535 32.0173 62.3764 32.4283H62.3613Z" fill="#0E181E"/>
<path d="M93.4511 32.4435C92.5099 40.5735 92.768 42.2634 94.9995 41.8675L94.8933 43.2073C94.028 43.9381 92.8287 44.6232 91.3714 44.882C88.5326 45.3844 87.0449 43.9229 87.3789 39.797L87.9861 33.0069C88.2442 29.901 87.5307 28.6831 85.6635 29.018C83.7963 29.353 82.339 31.1495 81.9594 36.5999C81.671 40.4364 81.6255 43.6184 81.7621 46.1456L75.7506 47.2266C76.1453 44.9125 76.54 41.289 76.798 37.5285C77.1624 32.2 76.9498 29.6879 74.7031 30.099L74.779 28.3786L82.6274 26.9779L82.4452 29.8706C83.7204 27.3281 85.284 26.0797 87.9709 25.5925C91.8875 24.8922 94.0735 26.9323 93.4359 32.4588L93.4511 32.4435Z" fill="#0E181E"/>
<path d="M35.0595 42.7429C34.9381 44.7373 33.2227 46.275 29.7463 46.5947C31.3858 47.0514 32.3878 48.4673 32.2511 50.5531C32.0841 53.5371 29.0936 56.2166 24.2206 57.0844C19.4236 57.937 14.6417 56.4602 15.0212 51.3752C15.2337 48.5282 17.5412 46.5186 21.3363 45.3463C18.6949 45.1788 17.3894 43.7934 17.5563 41.5401C17.7082 39.3935 19.3932 37.7949 22.8392 37.1707C25.7539 36.653 28.79 37.2468 28.623 39.8654C28.5623 40.8246 27.8032 41.8446 26.5736 42.073C25.3288 42.3014 24.0536 41.7685 24.0233 40.718C24.509 40.6267 25.1466 40.2917 25.177 39.5609C25.2225 38.7388 24.4939 38.4039 23.6438 38.5561C22.5356 38.754 21.8828 39.5914 21.7765 41.1443C21.6096 43.3519 22.5052 44.4937 24.5546 44.1283L25.8146 43.8999L25.7235 45.3919L24.4635 45.6203C21.1845 46.1988 19.6209 47.9344 19.4236 50.888C19.211 53.872 20.8202 56.1253 24.3572 55.5011C26.9987 55.0291 28.8507 53.1717 29.1239 50.6444C29.382 48.178 28.1372 47.4473 26.9835 47.6604C25.7994 47.8735 25.2074 48.8631 25.2377 49.7309C25.2529 50.614 25.7994 51.3295 26.862 51.1925C26.5281 52.2887 25.7235 52.9281 24.7368 53.1108C23.1732 53.3848 22.0498 52.2582 22.0953 50.7205C22.1561 49.0154 23.5982 47.4168 27.3023 46.1379C30.3384 45.0875 31.0519 44.2653 31.1126 43.3671C31.1733 42.2709 29.9741 41.8142 29.0936 42.3623C29.3668 41.2509 30.475 40.2765 31.9323 40.0177C33.6781 39.698 35.1962 40.7637 35.0899 42.7733L35.0595 42.7429Z" fill="#0E181E"/>
</g>
<defs>
<clipPath id="clip0_146_139">
<rect width="95" height="60" fill="white"/>
</clipPath>
</defs>
</svg>
